<mxfile host="65bd71144e">
    <diagram name="Page-1" id="lMXFKlL8Bwvw9kg3FBqw">
        <mxGraphModel dx="1336" dy="1851" grid="1" gridSize="10" guides="1" tooltips="1" connect="1" arrows="1" fold="1" page="1" pageScale="1" pageWidth="850" pageHeight="1100" background="none" math="0" shadow="0">
            <root>
                <mxCell id="0"/>
                <mxCell id="1" style="" parent="0"/>
                <mxCell id="GoKNf1hH-Z8f_osksqzi-78" value="" style="rounded=1;whiteSpace=wrap;html=1;fontFamily=Helvetica;fontSize=11;fontColor=#000000;labelBackgroundColor=default;resizable=1;fillColor=#FFFFFF;opacity=90;strokeColor=#000000;strokeWidth=4;align=center;verticalAlign=middle;arcSize=12;movable=1;rotatable=1;deletable=1;editable=1;connectable=1;shadow=1;" parent="1" vertex="1">
                    <mxGeometry x="130" y="-800" width="870" height="500" as="geometry"/>
                </mxCell>
                <mxCell id="70" value="" style="group" vertex="1" connectable="0" parent="1">
                    <mxGeometry x="180" y="-750" width="760" height="400" as="geometry"/>
                </mxCell>
                <mxCell id="42" value="" style="rounded=1;whiteSpace=wrap;html=1;shadow=1;opacity=90;fontSize=20;verticalAlign=top;fillColor=#d0cee2;strokeColor=#56517e;spacing=0;arcSize=9;strokeWidth=5;spacingTop=10;spacingLeft=10;spacingRight=10;" parent="70" vertex="1">
                    <mxGeometry width="760" height="400" as="geometry"/>
                </mxCell>
                <mxCell id="71" style="edgeStyle=orthogonalEdgeStyle;html=1;exitX=0.5;exitY=0;exitDx=0;exitDy=0;entryX=0;entryY=0.5;entryDx=0;entryDy=0;entryPerimeter=0;strokeColor=#000000;fontColor=#000000;strokeWidth=4;arcSize=12;startArrow=none;endFill=1;opacity=70;curved=1;" edge="1" parent="70" source="45" target="69">
                    <mxGeometry relative="1" as="geometry"/>
                </mxCell>
                <mxCell id="45" value="Outboxer" style="html=1;overflow=block;blockSpacing=1;whiteSpace=wrap;fontSize=18;spacing=9;rounded=1;absoluteArcSize=1;arcSize=9;strokeWidth=2;lucidId=YW3KcYp1MhGA;movable=1;resizable=1;rotatable=1;deletable=1;editable=1;locked=0;connectable=1;fillColor=#FFFFFF;fontColor=#000000;strokeColor=#000000;align=center;verticalAlign=middle;fontFamily=Helvetica;fontStyle=1;" parent="70" vertex="1">
                    <mxGeometry x="40" y="240" width="130" height="90" as="geometry"/>
                </mxCell>
                <mxCell id="54" value="Queue" style="html=1;overflow=block;blockSpacing=1;whiteSpace=wrap;shape=cylinder3;direction=south;size=10;anchorPointDirection=0;boundedLbl=1;fontSize=18;spacing=9;strokeColor=#000000;rounded=1;absoluteArcSize=1;arcSize=9;fillColor=#FFFFFF;strokeWidth=2;lucidId=YW3Kj~0P2WnY;fontColor=#000000;movable=1;resizable=1;rotatable=1;deletable=1;editable=1;locked=0;connectable=1;align=center;verticalAlign=middle;fontFamily=Helvetica;fontStyle=1;" parent="70" vertex="1">
                    <mxGeometry x="590" y="240" width="150" height="90" as="geometry"/>
                </mxCell>
                <mxCell id="55" value="" style="html=1;jettySize=18;whiteSpace=wrap;fontSize=11;strokeColor=#000000;strokeOpacity=100;strokeWidth=4;rounded=1;arcSize=12;edgeStyle=orthogonalEdgeStyle;startArrow=none;endArrow=classic;endFill=1;lucidId=YW3KZ0~PzFLt;movable=1;resizable=1;rotatable=1;deletable=1;editable=1;locked=0;connectable=1;opacity=70;align=center;verticalAlign=middle;fontFamily=Helvetica;fontColor=#000000;labelBackgroundColor=default;curved=1;entryX=0;entryY=0.5;entryDx=0;entryDy=0;entryPerimeter=0;" parent="70" target="54" edge="1">
                    <mxGeometry width="100" height="100" relative="1" as="geometry">
                        <Array as="points">
                            <mxPoint x="590" y="285"/>
                            <mxPoint x="590" y="285"/>
                        </Array>
                        <mxPoint x="170" y="285" as="sourcePoint"/>
                        <mxPoint x="410" y="645" as="targetPoint"/>
                    </mxGeometry>
                </mxCell>
                <mxCell id="47" value="&lt;i&gt;command_1:&lt;/i&gt;&lt;br&gt;&lt;i&gt;&lt;font color=&quot;#ff0000&quot;&gt;publish&lt;/font&gt;&lt;/i&gt;&lt;br&gt;to the queue &amp;amp;&lt;br&gt;&lt;i&gt;&lt;font color=&quot;#ff0000&quot;&gt;start&amp;nbsp;&lt;/font&gt;next process&lt;/i&gt;" style="html=1;overflow=block;blockSpacing=1;whiteSpace=wrap;ellipse;shape=cloud;fontSize=18;spacing=9;strokeColor=#000000;strokeOpacity=100;fillOpacity=100;rounded=1;absoluteArcSize=1;arcSize=9;fillColor=#FFFFFF;strokeWidth=2;lucidId=YW3KfiS4kU.2;movable=1;resizable=1;rotatable=1;deletable=1;editable=1;locked=0;connectable=1;align=center;verticalAlign=middle;fontFamily=Helvetica;fontColor=#000000;fontStyle=1;" parent="70" vertex="1">
                    <mxGeometry x="235" y="188.38" width="283.75" height="193.24" as="geometry"/>
                </mxCell>
                <mxCell id="49" value="&lt;i&gt;command_1:&lt;/i&gt;&lt;br&gt;&lt;i&gt;&lt;font color=&quot;#ff3333&quot;&gt;poll&lt;/font&gt;&lt;/i&gt;&amp;nbsp;from &lt;br&gt;the database" style="html=1;overflow=block;blockSpacing=1;whiteSpace=wrap;ellipse;shape=cloud;fontSize=18;spacing=9;strokeColor=#000000;strokeOpacity=100;fillOpacity=100;rounded=1;absoluteArcSize=1;arcSize=9;fillColor=#FFFFFF;strokeWidth=2;lucidId=YW3KfiS4kU.2;movable=1;resizable=1;rotatable=1;deletable=1;editable=1;locked=0;connectable=1;align=center;verticalAlign=middle;fontFamily=Helvetica;fontColor=#000000;fontStyle=1;" parent="70" vertex="1">
                    <mxGeometry x="238.13" width="283.75" height="193.24" as="geometry"/>
                </mxCell>
                <mxCell id="67" value="" style="html=1;verticalLabelPosition=bottom;align=center;labelBackgroundColor=#ffffff;verticalAlign=top;strokeWidth=4;strokeColor=#000000;shadow=0;dashed=0;shape=mxgraph.ios7.icons.clock;fillColor=#FFFFFF;" vertex="1" parent="70">
                    <mxGeometry x="36" y="110" width="62" height="60" as="geometry"/>
                </mxCell>
                <mxCell id="68" value="" style="html=1;verticalLabelPosition=bottom;align=center;labelBackgroundColor=#ffffff;verticalAlign=top;strokeWidth=4;strokeColor=#000000;shadow=0;dashed=0;shape=mxgraph.ios7.icons.reload;fillColor=#FFFFFF;" vertex="1" parent="70">
                    <mxGeometry x="40" y="30" width="54" height="60" as="geometry"/>
                </mxCell>
                <mxCell id="69" value="Database" style="html=1;overflow=block;blockSpacing=1;whiteSpace=wrap;shape=cylinder3;size=4;anchorPointDirection=0;boundedLbl=1;fontSize=18;spacing=9;strokeColor=#000000;rounded=1;absoluteArcSize=1;arcSize=9;fillColor=#FFFFFF;strokeWidth=2;lucidId=YW3Kp418ABGM;fontColor=#000000;movable=1;resizable=1;rotatable=1;deletable=1;editable=1;locked=0;connectable=1;align=center;verticalAlign=middle;fontFamily=Helvetica;fontStyle=1;" vertex="1" parent="70">
                    <mxGeometry x="610" y="30" width="95" height="110" as="geometry"/>
                </mxCell>
                <mxCell id="GoKNf1hH-Z8f_osksqzi-77" value="Untitled Layer" style="" parent="0"/>
            </root>
        </mxGraphModel>
    </diagram>
</mxfile>